Coordinates
version=1
nRows=18
nColumns=22
inDegrees=yes

Units are S.I. units (second, meters, Newtons, ...)
If the header above contains a line with 'inDegrees', this indicates whether rotational values are in degrees (yes) or radians (no).

endheader
time	pelvis_tilt	pelvis_list	pelvis_rotation	pelvis_tx	pelvis_ty	pelvis_tz	hip_flexion_r	hip_adduction_r	hip_rotation_r	knee_angle_r	ankle_angle_r	subtalar_angle_r	hip_flexion_l	hip_adduction_l	hip_rotation_l	knee_angle_l	ankle_angle_l	subtalar_angle_l	lumbar_extension	lumbar_bending	lumbar_rotation
      1.53000000	      6.44948866	     -3.19606788	      3.92416125	      1.12539467	      0.94646410	     -0.09471771	     -6.94780677	      5.35482294	     -9.24688800	     -6.90895456	      9.49223757	     -2.67249603	     -3.41192793	     -4.22869522	    -10.55341260	    -15.60829663	     20.42091864	     -7.25374592	    -13.10317129	      3.78823838	     -8.33565329
      1.54000000	      6.45273655	     -3.19256926	      3.92394699	      1.12532170	      0.94646885	     -0.09465001	     -6.94715229	      5.35613340	     -9.24669834	     -6.90852485	      9.49205082	     -2.67210766	     -3.41069383	     -4.22919404	    -10.55358013	    -15.60752261	     20.42081961	     -7.25377815	    -13.10171546	      3.78933720	     -8.33567628
      1.55000000	      6.45595925	     -3.18922167	      3.92344725	      1.12525099	      0.94647368	     -0.09458195	     -6.94673325	      5.35756698	     -9.24657018	     -6.90821357	      9.49182216	     -2.67173707	     -3.40949115	     -4.22965582	    -10.55367994	    -15.60691016	     20.42066135	     -7.25381493	    -13.10001559	      3.79032519	     -8.33574396
      1.56000000	      6.45883620	     -3.18779021	      3.91901231	      1.12520397	      0.94647743	     -0.09449141	     -6.94790231	      5.36227321	     -9.24476737	     -6.90734195	      9.48794147	     -2.66689500	     -3.40926590	     -4.23307399	    -10.55451354	    -15.60927802	     20.41724214	     -7.25440592	    -13.09109650	      3.78717347	     -8.33774282
      1.57000000	      6.46228083	     -3.18451013	      3.91857292	      1.12512929	      0.94648179	     -0.09442358	     -6.94723434	      5.36350175	     -9.24478758	     -6.90690405	      9.48767934	     -2.66657899	     -3.40784144	     -4.23370479	    -10.55460849	    -15.60861607	     20.41702034	     -7.25444806	    -13.08962269	      3.78808302	     -8.33765976
      1.58000000	      6.46531552	     -3.18348762	      3.91495846	      1.12506817	      0.94648579	     -0.09431944	     -6.94653016	      5.36934305	     -9.24534287	     -6.90643625	      9.48366814	     -2.66265056	     -3.40611927	     -4.23891306	    -10.55520896	    -15.61118673	     20.41277088	     -7.25511392	    -13.08459049	      3.78102528	     -8.33787803
      1.59000000	      6.46918460	     -3.18036450	      3.91454466	      1.12499225	      0.94649124	     -0.09424919	     -6.94558609	      5.37066398	     -9.24547456	     -6.90606580	      9.48339190	     -2.66237943	     -3.40486250	     -4.23955410	    -10.55527833	    -15.61072690	     20.41247441	     -7.25516186	    -13.08301839	      3.78166779	     -8.33775111
      1.60000000	      6.47377482	     -3.17962851	      3.91113615	      1.12492595	      0.94649844	     -0.09413221	     -6.94418258	      5.37782925	     -9.24687608	     -6.90824746	      9.48012836	     -2.65968811	     -3.40420471	     -4.24609568	    -10.55536709	    -15.61369002	     20.40838841	     -7.25577356	    -13.07990922	      3.77164023	     -8.33809014
      1.61000000	      6.47859734	     -3.17852419	      3.90915041	      1.12484697	      0.94650729	     -0.09402616	     -6.94125131	      5.38328192	     -9.24835413	     -6.91165741	      9.47613253	     -2.65656937	     -3.40247848	     -4.25189357	    -10.55656941	    -15.61641618	     20.40336806	     -7.25643306	    -13.08031070	      3.76458645	     -8.33784862
      1.62000000	      6.48413137	     -3.17769322	      3.90667150	      1.12475898	      0.94651819	     -0.09391740	     -6.93739530	      5.38914292	     -9.25000698	     -6.91689550	      9.47177001	     -2.65332763	     -3.40080424	     -4.25813395	    -10.55808693	    -15.61932006	     20.39790966	     -7.25705665	    -13.08308662	      3.75758426	     -8.33776974
      1.63000000	      6.49647521	     -3.18000510	      3.90288917	      1.12463959	      0.94653994	     -0.09382121	     -6.92681962	      5.39498120	     -9.25738727	     -6.94680974	      9.45152999	     -2.63823135	     -3.39807500	     -4.26896897	    -10.57032809	    -15.63586137	     20.37420864	     -7.25871141	    -13.09991176	      3.75916796	     -8.33162113
      1.64000000	      6.50013388	     -3.17950565	      3.89938369	      1.12454630	      0.94654945	     -0.09370802	     -6.92353898	      5.40149425	     -9.25957213	     -6.94614654	      9.45059840	     -2.63662986	     -3.39631293	     -4.27485217	    -10.57086376	    -15.63425574	     20.37329857	     -7.25860996	    -13.10134507	      3.75062684	     -8.33214689
      1.65000000	      6.50468630	     -3.17979657	      3.89661806	      1.12444495	      0.94656047	     -0.09359081	     -6.91956261	      5.40915998	     -9.26156352	     -6.94825670	      9.44868582	     -2.63513219	     -3.39428069	     -4.28239190	    -10.57144187	    -15.63365793	     20.37158002	     -7.25857260	    -13.10402959	      3.74142564	     -8.33197505
      1.66000000	      6.50979109	     -3.18133591	      3.89287718	      1.12433376	      0.94657282	     -0.09346729	     -6.91441985	      5.41820344	     -9.26406030	     -6.95239088	      9.44561845	     -2.63371018	     -3.39162332	     -4.29166141	    -10.57203624	    -15.63436273	     20.36900325	     -7.25854123	    -13.10814014	      3.73209451	     -8.33096987
      1.67000000	      6.52030711	     -3.19947075	      3.88395578	      1.12417798	      0.94659127	     -0.09334386	     -6.89230373	      5.44104257	     -9.28059555	     -6.99358883	      9.41697147	     -2.62419901	     -3.38022687	     -4.32139421	    -10.58848908	    -15.65942030	     20.35038150	     -7.25595113	    -13.12503432	      3.74595068	     -8.30718193
      1.68000000	      6.52406594	     -3.20082128	      3.87898290	      1.12406953	      0.94660329	     -0.09321160	     -6.88819834	      5.45000812	     -9.28346913	     -6.99285354	      9.41534436	     -2.62320673	     -3.37720059	     -4.33062613	    -10.58962463	    -15.65871690	     20.35030003	     -7.25530378	    -13.12407246	      3.73447992	     -8.30761689
      1.69000000	      6.52280488	     -3.22594214	      3.87207890	      1.12395257	      0.94660354	     -0.09307072	     -6.86335530	      5.48229958	     -9.30379064	     -7.01751167	      9.38826484	     -2.61612999	     -3.35746218	     -4.37004391	    -10.61605353	    -15.67846627	     20.34421975	     -7.24664383	    -13.11529741	      3.75103194	     -8.27807783
      1.70000000	      6.52750162	     -3.22722673	      3.86339572	      1.12384102	      0.94661837	     -0.09293480	     -6.85949225	      5.49057304	     -9.30559546	     -7.01693748	      9.38721396	     -2.61574914	     -3.35532283	     -4.37823843	    -10.61545611	    -15.67966369	     20.34471191	     -7.24565038	    -13.11306188	      3.74087629	     -8.28053317
